<svg width="456" height="75" viewBox="0 0 456 75" fill="none" xmlns="http://www.w3.org/2000/svg">
<path d="M15.1648 41.4659V73H0.036932V18.4545H14.4545V28.0781H15.0938C16.3011 24.9058 18.3253 22.3963 21.1662 20.5497C24.0071 18.6795 27.4517 17.7443 31.5 17.7443C35.2879 17.7443 38.5904 18.5729 41.4077 20.2301C44.2249 21.8873 46.4148 24.2547 47.9773 27.3324C49.5398 30.3864 50.321 34.0322 50.321 38.2699V73H35.1932V40.9688C35.2169 37.6307 34.3646 35.0265 32.6364 33.1562C30.9081 31.2623 28.5289 30.3153 25.4986 30.3153C23.4626 30.3153 21.6634 30.7533 20.1009 31.6293C18.562 32.5052 17.3546 33.7836 16.4787 35.4645C15.6264 37.1217 15.1884 39.1222 15.1648 41.4659ZM87.2227 49.7756V18.4545H102.35V73H87.8263V63.0923H87.2582C86.0271 66.2884 83.9793 68.857 81.1147 70.7983C78.2738 72.7396 74.8055 73.7102 70.7099 73.7102C67.064 73.7102 63.8562 72.8816 61.0863 71.2244C58.3164 69.5672 56.1502 67.2116 54.5877 64.1577C53.0489 61.1037 52.2676 57.446 52.244 53.1847V18.4545H67.3718V50.4858C67.3955 53.7055 68.2596 56.2505 69.9641 58.1207C71.6687 59.991 73.9532 60.9261 76.8178 60.9261C78.6407 60.9261 80.3453 60.5118 81.9315 59.6832C83.5176 58.831 84.796 57.5762 85.7667 55.919C86.761 54.2618 87.2463 52.214 87.2227 49.7756ZM149.835 34.0085L135.985 34.8608C135.748 33.6771 135.239 32.6117 134.458 31.6648C133.677 30.6941 132.647 29.9247 131.369 29.3565C130.114 28.7647 128.611 28.4688 126.859 28.4688C124.515 28.4688 122.538 28.9659 120.928 29.9602C119.318 30.9309 118.513 32.233 118.513 33.8665C118.513 35.1686 119.034 36.2694 120.076 37.169C121.118 38.0687 122.905 38.7907 125.438 39.3352L135.31 41.3239C140.613 42.4129 144.567 44.1648 147.171 46.5795C149.775 48.9943 151.077 52.1667 151.077 56.0966C151.077 59.6714 150.024 62.8082 147.917 65.5071C145.834 68.206 142.969 70.313 139.323 71.8281C135.701 73.3196 131.522 74.0653 126.788 74.0653C119.567 74.0653 113.814 72.562 109.529 69.5554C105.268 66.5251 102.77 62.4058 102.036 57.1974L116.915 56.4162C117.365 58.6179 118.454 60.2988 120.183 61.4588C121.911 62.5952 124.124 63.1634 126.823 63.1634C129.475 63.1634 131.605 62.6544 133.215 61.6364C134.849 60.5947 135.677 59.2571 135.701 57.6236C135.677 56.2505 135.097 55.1259 133.961 54.25C132.825 53.3504 131.073 52.6638 128.705 52.1903L119.259 50.3082C113.933 49.2429 109.967 47.3963 107.363 44.7685C104.782 42.1406 103.492 38.7907 103.492 34.7188C103.492 31.215 104.439 28.1965 106.333 25.6634C108.251 23.1302 110.938 21.1771 114.394 19.804C117.874 18.4309 121.946 17.7443 126.61 17.7443C133.499 17.7443 138.921 19.2003 142.874 22.1122C146.852 25.0241 149.172 28.9896 149.835 34.0085ZM166.157 74.0298C162.677 74.0298 159.576 73.4261 156.853 72.2188C154.131 70.9877 151.976 69.1766 150.39 66.7855C148.828 64.3707 148.047 61.3641 148.047 57.7656C148.047 54.7353 148.603 52.1903 149.716 50.1307C150.828 48.071 152.343 46.4138 154.261 45.1591C156.179 43.9044 158.357 42.9574 160.795 42.3182C163.257 41.679 165.838 41.2292 168.537 40.9688C171.709 40.6373 174.266 40.3295 176.207 40.0455C178.148 39.7377 179.557 39.2879 180.433 38.696C181.309 38.1042 181.747 37.2282 181.747 36.0682V35.8551C181.747 33.6061 181.037 31.866 179.616 30.6349C178.219 29.4039 176.231 28.7884 173.65 28.7884C170.928 28.7884 168.761 29.392 167.152 30.5994C165.542 31.7831 164.476 33.2746 163.956 35.0739L149.964 33.9375C150.674 30.6231 152.071 27.7585 154.154 25.3438C156.238 22.9053 158.925 21.035 162.216 19.733C165.53 18.4072 169.365 17.7443 173.721 17.7443C176.752 17.7443 179.652 18.0994 182.422 18.8097C185.215 19.5199 187.689 20.6207 189.843 22.1122C192.021 23.6037 193.738 25.5213 194.993 27.8651C196.247 30.1851 196.875 32.9669 196.875 36.2102V73H182.528V65.4361H182.102C181.226 67.1406 180.054 68.6439 178.586 69.946C177.118 71.2244 175.355 72.2306 173.295 72.9645C171.235 73.6747 168.856 74.0298 166.157 74.0298ZM170.49 63.5895C172.715 63.5895 174.68 63.1515 176.385 62.2756C178.089 61.3759 179.427 60.1686 180.397 58.6534C181.368 57.1383 181.853 55.4219 181.853 53.5043V47.7159C181.38 48.0237 180.729 48.3078 179.9 48.5682C179.095 48.8049 178.184 49.0298 177.166 49.2429C176.148 49.4323 175.13 49.6098 174.112 49.7756C173.094 49.9176 172.171 50.0478 171.342 50.1662C169.566 50.4266 168.016 50.8409 166.69 51.4091C165.364 51.9773 164.334 52.7467 163.6 53.7173C162.867 54.6643 162.5 55.848 162.5 57.2685C162.5 59.3281 163.245 60.9025 164.737 61.9915C166.252 63.0568 168.17 63.5895 170.49 63.5895ZM213.739 41.4659V73H198.611V18.4545H213.029V28.0781H213.668C214.875 24.9058 216.9 22.3963 219.74 20.5497C222.581 18.6795 226.026 17.7443 230.074 17.7443C233.862 17.7443 237.165 18.5729 239.982 20.2301C242.799 21.8873 244.989 24.2547 246.551 27.3324C248.114 30.3864 248.895 34.0322 248.895 38.2699V73H233.767V40.9688C233.791 37.6307 232.939 35.0265 231.211 33.1562C229.482 31.2623 227.103 30.3153 224.073 30.3153C222.037 30.3153 220.238 30.7533 218.675 31.6293C217.136 32.5052 215.929 33.7836 215.053 35.4645C214.201 37.1217 213.763 39.1222 213.739 41.4659ZM264.526 57.304L264.561 39.1577H266.763L284.234 18.4545H301.599L278.126 45.8693H274.54L264.526 57.304ZM250.818 73V0.272725H265.946V73H250.818ZM284.909 73L268.858 49.2429L278.943 38.554L302.629 73H284.909ZM321.633 74.0653C316.022 74.0653 311.193 72.929 307.145 70.6562C303.12 68.3598 300.019 65.1165 297.841 60.9261C295.663 56.7121 294.574 51.7287 294.574 45.9759C294.574 40.3651 295.663 35.4408 297.841 31.2031C300.019 26.9654 303.084 23.6629 307.038 21.2955C311.015 18.928 315.679 17.7443 321.029 17.7443C324.628 17.7443 327.978 18.3243 331.079 19.4844C334.204 20.6207 336.927 22.3371 339.247 24.6335C341.591 26.9299 343.413 29.8182 344.716 33.2983C346.018 36.7547 346.669 40.803 346.669 45.4432V49.598H300.61V40.223H332.429C332.429 38.045 331.955 36.1155 331.008 34.4347C330.061 32.7538 328.747 31.4399 327.066 30.4929C325.409 29.5223 323.48 29.0369 321.278 29.0369C318.982 29.0369 316.946 29.5696 315.17 30.6349C313.418 31.6766 312.045 33.0852 311.051 34.8608C310.056 36.6127 309.547 38.5658 309.524 40.7202V49.6335C309.524 52.3324 310.021 54.6643 311.015 56.6293C312.033 58.5942 313.466 60.1094 315.312 61.1747C317.159 62.2401 319.349 62.7727 321.882 62.7727C323.563 62.7727 325.101 62.536 326.498 62.0625C327.895 61.589 329.091 60.8788 330.085 59.9318C331.079 58.9848 331.837 57.8248 332.358 56.4517L346.349 57.375C345.639 60.7367 344.183 63.6723 341.981 66.1818C339.803 68.6676 336.986 70.6089 333.529 72.0057C330.097 73.3788 326.131 74.0653 321.633 74.0653ZM346.541 73V18.4545H361.207V27.9716H361.775C362.77 24.5862 364.439 22.0294 366.782 20.3011C369.126 18.5492 371.825 17.6733 374.879 17.6733C375.636 17.6733 376.453 17.7206 377.329 17.8153C378.205 17.91 378.975 18.0402 379.637 18.206V31.6293C378.927 31.4162 377.945 31.2268 376.69 31.0611C375.435 30.8954 374.287 30.8125 373.245 30.8125C371.02 30.8125 369.031 31.2978 367.279 32.2685C365.551 33.2154 364.178 34.5412 363.16 36.2457C362.166 37.9503 361.669 39.9152 361.669 42.1406V73H346.541ZM409.206 18.4545V29.8182H376.358V18.4545H409.206ZM383.815 5.38636H398.943V56.2386C398.943 57.6354 399.156 58.7244 399.582 59.5057C400.009 60.2633 400.6 60.7959 401.358 61.1037C402.139 61.4115 403.039 61.5653 404.057 61.5653C404.767 61.5653 405.477 61.5062 406.188 61.3878C406.898 61.2457 407.442 61.1392 407.821 61.0682L410.2 72.3253C409.443 72.562 408.377 72.8343 407.004 73.142C405.631 73.4735 403.962 73.6747 401.997 73.7457C398.351 73.8878 395.155 73.4025 392.409 72.2898C389.687 71.1771 387.568 69.4489 386.053 67.1051C384.537 64.7614 383.792 61.8021 383.815 58.2273V5.38636ZM424.614 74.0298C421.134 74.0298 418.033 73.4261 415.31 72.2188C412.588 70.9877 410.433 69.1766 408.847 66.7855C407.285 64.3707 406.504 61.3641 406.504 57.7656C406.504 54.7353 407.06 52.1903 408.173 50.1307C409.285 48.071 410.8 46.4138 412.718 45.1591C414.636 43.9044 416.814 42.9574 419.252 42.3182C421.714 41.679 424.295 41.2292 426.994 40.9688C430.166 40.6373 432.723 40.3295 434.664 40.0455C436.605 39.7377 438.014 39.2879 438.89 38.696C439.766 38.1042 440.204 37.2282 440.204 36.0682V35.8551C440.204 33.6061 439.494 31.866 438.073 30.6349C436.676 29.4039 434.688 28.7884 432.107 28.7884C429.385 28.7884 427.219 29.392 425.609 30.5994C423.999 31.7831 422.933 33.2746 422.413 35.0739L408.421 33.9375C409.131 30.6231 410.528 27.7585 412.612 25.3438C414.695 22.9053 417.382 21.035 420.673 19.733C423.987 18.4072 427.822 17.7443 432.178 17.7443C435.209 17.7443 438.109 18.0994 440.879 18.8097C443.672 19.5199 446.146 20.6207 448.3 22.1122C450.478 23.6037 452.195 25.5213 453.45 27.8651C454.704 30.1851 455.332 32.9669 455.332 36.2102V73H440.985V65.4361H440.559C439.683 67.1406 438.511 68.6439 437.043 69.946C435.576 71.2244 433.812 72.2306 431.752 72.9645C429.692 73.6747 427.313 74.0298 424.614 74.0298ZM428.947 63.5895C431.172 63.5895 433.137 63.1515 434.842 62.2756C436.546 61.3759 437.884 60.1686 438.854 58.6534C439.825 57.1383 440.31 55.4219 440.31 53.5043V47.7159C439.837 48.0237 439.186 48.3078 438.357 48.5682C437.552 48.8049 436.641 49.0298 435.623 49.2429C434.605 49.4323 433.587 49.6098 432.569 49.7756C431.551 49.9176 430.628 50.0478 429.799 50.1662C428.023 50.4266 426.473 50.8409 425.147 51.4091C423.821 51.9773 422.791 52.7467 422.058 53.7173C421.324 54.6643 420.957 55.848 420.957 57.2685C420.957 59.3281 421.702 60.9025 423.194 61.9915C424.709 63.0568 426.627 63.5895 428.947 63.5895Z" fill="black"/>
</svg>
